<svg width="12" height="20" viewBox="0 0 12 20" fill="none" xmlns="http://www.w3.org/2000/svg">
<path d="M4.32 13.9067V9.36667C5.83333 9.29333 7.02 8.92667 7.88 8.26C8.74 7.59333 9.16667 6.68 9.16667 5.52V5.12667C9.16667 4.18667 8.87333 3.43333 8.28 2.86667C7.68667 2.30667 6.89333 2.02 5.9 2.02C4.82667 2.02 3.97333 2.32667 3.34 2.93333C2.7 3.54667 2.27333 4.32 2.05333 5.26667L0 4.48667C0.166667 3.89333 0.413333 3.32667 0.733333 2.78C1.06 2.24 1.46667 1.76 1.95333 1.34667C2.44 0.933333 3.02 0.606667 3.68667 0.36C4.34667 0.12 5.11333 0 5.98667 0C7.70667 0 9.06 0.473333 10.06 1.41333C11.06 2.35333 11.5533 3.62667 11.5533 5.23333C11.5533 6.12 11.4 6.89333 11.0933 7.54667C10.7867 8.2 10.3933 8.76 9.91333 9.22C9.43333 9.68 8.88667 10.0533 8.28 10.3267C7.67333 10.6067 7.06 10.8 6.45333 10.9067V13.9H4.32V13.9067ZM5.4 20C4.80667 20 4.38 19.8533 4.11333 19.56C3.84667 19.2667 3.71333 18.8733 3.71333 18.3933V18.0333C3.71333 17.5533 3.84667 17.1667 4.11333 16.8667C4.38 16.5733 4.81333 16.42 5.4 16.42C5.99333 16.42 6.42 16.5667 6.68667 16.8667C6.95333 17.16 7.08667 17.5533 7.08667 18.0333V18.3933C7.08667 18.8733 6.95333 19.26 6.68667 19.56C6.42 19.8533 5.99333 20 5.4 20Z" fill="black"/>
</svg>
