<?xml version="1.0" encoding="utf-8"?>
<!-- Generator: Adobe Illustrator 23.0.4, SVG Export Plug-In . SVG Version: 6.00 Build 0)  -->
<svg version="1.1" xmlns="http://www.w3.org/2000/svg" xmlns:xlink="http://www.w3.org/1999/xlink" x="0px" y="0px"
	 viewBox="0 0 100 100" enable-background="new 0 0 100 100" xml:space="preserve">
<g id="Info_BL">
	<g>
		<path d="M21.61,69.53V46.81c7.57-0.37,13.5-2.21,17.8-5.54c4.29-3.32,6.44-7.89,6.44-13.71v-1.94c0-4.71-1.48-8.47-4.43-11.29
			c-2.96-2.82-6.93-4.22-11.91-4.22c-5.36,0-9.63,1.52-12.81,4.57c-3.19,3.05-5.33,6.92-6.44,11.63L0,22.44
			c0.83-2.96,2.06-5.8,3.67-8.52c1.62-2.72,3.65-5.12,6.09-7.2C12.21,4.64,15.1,3,18.43,1.8C21.75,0.6,25.58,0,29.92,0
			c8.59,0,15.37,2.35,20.36,7.06c4.98,4.71,7.48,11.08,7.48,19.11c0,4.43-0.76,8.29-2.28,11.56c-1.52,3.28-3.49,6.07-5.89,8.38
			c-2.4,2.31-5.12,4.15-8.17,5.54c-3.05,1.38-6.09,2.35-9.14,2.91v14.96H21.61z M27.01,100c-2.96,0-5.1-0.74-6.44-2.21
			c-1.34-1.48-2.01-3.42-2.01-5.82v-1.8c0-2.4,0.67-4.34,2.01-5.82c1.34-1.48,3.49-2.22,6.44-2.22c2.95,0,5.1,0.74,6.44,2.22
			c1.34,1.48,2.01,3.42,2.01,5.82v1.8c0,2.4-0.67,4.34-2.01,5.82C32.11,99.26,29.96,100,27.01,100z"/>
	</g>
</g>
<g id="Opal_Logo_TL">
</g>
<g id="Hobbes_Logo_TR">
</g>
</svg>
